{
  "accessors": [
    {
      "bufferView": 2,
      "componentType": 5126,
      "count": 4666,
      "max": [
        1.4344232082366943,
        0.44590362906455994,
        0.887748122215271
      ],
      "min": [
        -1.0203131437301636,
        -0.5428414344787598,
        -1.0024528503417969
      ],
      "type": "VEC3"
    },
    {
      "bufferView": 2,
      "byteOffset": 55992,
      "componentType": 5126,
      "count": 4666,
      "max": [
        0.9999642968177795,
        0.9999762177467346,
        0.9993915557861328
      ],
      "min": [
        -0.9998606443405151,
        -0.9999426007270813,
        -0.9984493851661682
      ],
      "type": "VEC3"
    },
    {
      "bufferView": 3,
      "componentType": 5126,
      "count": 4666,
      "max": [
        0.9650959372520447,
        0.9998759627342224,
        0.9999566078186035,
        1.0
      ],
      "min": [
        -0.9992808103561401,
        -0.9996960759162903,
        -0.9999146461486816,
        -1.0
      ],
      "type": "VEC4"
    },
    {
      "bufferView": 1,
      "componentType": 5126,
      "count": 4666,
      "max": [
        0.9859426617622375,
        1.0000001192092896
      ],
      "min": [
        -1.6164477756319684e-08,
        -4.798500796709959e-08
      ],
      "type": "VEC2"
    },
    {
      "bufferView": 0,
      "componentType": 5125,
      "count": 22464,
      "type": "SCALAR"
    }
  ],
  "asset": {
    "extras": {
      "author": "Bim44 (https://sketchfab.com/Bim44)",
      "license": "CC-BY-4.0 (http://creativecommons.org/licenses/by/4.0/)",
      "source": "https://sketchfab.com/3d-models/low-poly-banana-207c88a16f374796a40970fa2fcb919c",
      "title": "Low Poly Banana"
    },
    "generator": "Sketchfab-15.46.0",
    "version": "2.0"
  },
  "bufferViews": [
    {
      "buffer": 0,
      "byteLength": 89856,
      "name": "floatBufferViews",
      "target": 34963
    },
    {
      "buffer": 0,
      "byteLength": 37328,
      "byteOffset": 89856,
      "byteStride": 8,
      "name": "floatBufferViews",
      "target": 34962
    },
    {
      "buffer": 0,
      "byteLength": 111984,
      "byteOffset": 127184,
      "byteStride": 12,
      "name": "floatBufferViews",
      "target": 34962
    },
    {
      "buffer": 0,
      "byteLength": 74656,
      "byteOffset": 239168,
      "byteStride": 16,
      "name": "floatBufferViews",
      "target": 34962
    }
  ],
  "buffers": [
    {
      "byteLength": 313824,
      "uri": "scene.bin"
    }
  ],
  "images": [
    {
      "uri": "textures/Procedural_Banana_baseColor.png"
    },
    {
      "uri": "textures/Procedural_Banana_metallicRoughness.png"
    },
    {
      "uri": "textures/Procedural_Banana_normal.png"
    }
  ],
  "materials": [
    {
      "doubleSided": true,
      "name": "Procedural_Banana",
      "normalTexture": {
        "index": 2
      },
      "pbrMetallicRoughness": {
        "baseColorTexture": {
          "index": 0
        },
        "metallicFactor": 0.0,
        "metallicRoughnessTexture": {
          "index": 1
        },
        "roughnessFactor": 0.6567639063280954
      }
    }
  ],
  "meshes": [
    {
      "name": "Banana_Procedural Banana_0",
      "primitives": [
        {
          "attributes": {
            "NORMAL": 1,
            "POSITION": 0,
            "TANGENT": 2,
            "TEXCOORD_0": 3
          },
          "indices": 4,
          "material": 0,
          "mode": 4
        }
      ]
    }
  ],
  "nodes": [
    {
      "children": [
        1
      ],
      "matrix": [
        1.0,
        0.0,
        0.0,
        0.0,
        0.0,
        2.220446049250313e-16,
        -1.0,
        0.0,
        0.0,
        1.0,
        2.220446049250313e-16,
        0.0,
        0.0,
        0.0,
        0.0,
        1.0
      ],
      "name": "Sketchfab_model"
    },
    {
      "children": [
        2
      ],
      "matrix": [
        0.009999999776482582,
        0.0,
        0.0,
        0.0,
        0.0,
        0.0,
        0.009999999776482582,
        0.0,
        0.0,
        -0.009999999776482582,
        0.0,
        0.0,
        0.0,
        0.0,
        0.0,
        1.0
      ],
      "name": "2fd7a34adeb040a79aef3bb99219c517.fbx"
    },
    {
      "children": [
        3
      ],
      "name": "RootNode"
    },
    {
      "children": [
        4
      ],
      "matrix": [
        100.0,
        0.0,
        0.0,
        0.0,
        -0.0,
        -1.629206793918314e-05,
        -99.99999999999868,
        0.0,
        0.0,
        99.99999999999868,
        -1.629206793918314e-05,
        0.0,
        -4.4576544761657715,
        46.368682861328125,
        -6.484701633453369,
        1.0
      ],
      "name": "Banana"
    },
    {
      "mesh": 0,
      "name": "Banana_Procedural Banana_0"
    }
  ],
  "samplers": [
    {
      "magFilter": 9729,
      "minFilter": 9987,
      "wrapS": 10497,
      "wrapT": 10497
    }
  ],
  "scene": 0,
  "scenes": [
    {
      "name": "Sketchfab_Scene",
      "nodes": [
        0
      ]
    }
  ],
  "textures": [
    {
      "sampler": 0,
      "source": 0
    },
    {
      "sampler": 0,
      "source": 1
    },
    {
      "sampler": 0,
      "source": 2
    }
  ]
}
