{
  "accessors": [
    {
      "bufferView": 2,
      "componentType": 5126,
      "count": 8383,
      "max": [
        49.631839752197266,
        49.87858963012695,
        49.879337310791016
      ],
      "min": [
        -49.631839752197266,
        -49.87864303588867,
        -49.88291549682617
      ],
      "type": "VEC3"
    },
    {
      "bufferView": 2,
      "byteOffset": 100596,
      "componentType": 5126,
      "count": 8383,
      "max": [
        1.0,
        1.0,
        1.0
      ],
      "min": [
        -1.0,
        -1.0,
        -1.0
      ],
      "type": "VEC3"
    },
    {
      "bufferView": 3,
      "componentType": 5126,
      "count": 8383,
      "max": [
        1.0,
        1.0,
        0.012272631749510765,
        1.0
      ],
      "min": [
        -1.0,
        -1.0,
        -0.012272638268768787,
        1.0
      ],
      "type": "VEC4"
    },
    {
      "bufferView": 1,
      "componentType": 5126,
      "count": 8383,
      "max": [
        1.9999992847442627,
        1.0
      ],
      "min": [
        -7.152557373046875e-07,
        0.0
      ],
      "type": "VEC2"
    },
    {
      "bufferView": 1,
      "byteOffset": 67064,
      "componentType": 5126,
      "count": 8383,
      "max": [
        1.9999992847442627,
        1.0
      ],
      "min": [
        -7.152557373046875e-07,
        0.0
      ],
      "type": "VEC2"
    },
    {
      "bufferView": 1,
      "byteOffset": 134128,
      "componentType": 5126,
      "count": 8383,
      "max": [
        1.9999992847442627,
        1.0
      ],
      "min": [
        -7.152557373046875e-07,
        0.0
      ],
      "type": "VEC2"
    },
    {
      "bufferView": 1,
      "byteOffset": 201192,
      "componentType": 5126,
      "count": 8383,
      "max": [
        1.9999992847442627,
        1.0
      ],
      "min": [
        -7.152557373046875e-07,
        0.0
      ],
      "type": "VEC2"
    },
    {
      "bufferView": 1,
      "byteOffset": 268256,
      "componentType": 5126,
      "count": 8383,
      "max": [
        1.9999992847442627,
        1.0
      ],
      "min": [
        -7.152557373046875e-07,
        0.0
      ],
      "type": "VEC2"
    },
    {
      "bufferView": 1,
      "byteOffset": 335320,
      "componentType": 5126,
      "count": 8383,
      "max": [
        1.9999992847442627,
        1.0
      ],
      "min": [
        -7.152557373046875e-07,
        0.0
      ],
      "type": "VEC2"
    },
    {
      "bufferView": 1,
      "byteOffset": 402384,
      "componentType": 5126,
      "count": 8383,
      "max": [
        1.9999992847442627,
        1.0
      ],
      "min": [
        -7.152557373046875e-07,
        0.0
      ],
      "type": "VEC2"
    },
    {
      "bufferView": 1,
      "byteOffset": 469448,
      "componentType": 5126,
      "count": 8383,
      "max": [
        1.9999992847442627,
        1.0
      ],
      "min": [
        -7.152557373046875e-07,
        0.0
      ],
      "type": "VEC2"
    },
    {
      "bufferView": 1,
      "byteOffset": 536512,
      "componentType": 5126,
      "count": 8383,
      "max": [
        1.9999992847442627,
        1.0
      ],
      "min": [
        -7.152557373046875e-07,
        0.0
      ],
      "type": "VEC2"
    },
    {
      "bufferView": 1,
      "byteOffset": 603576,
      "componentType": 5126,
      "count": 8383,
      "max": [
        1.9999992847442627,
        1.0
      ],
      "min": [
        -7.152557373046875e-07,
        0.0
      ],
      "type": "VEC2"
    },
    {
      "bufferView": 0,
      "componentType": 5125,
      "count": 48384,
      "type": "SCALAR"
    }
  ],
  "asset": {
    "extras": {
      "author": "Zorak-Art (https://sketchfab.com/William.Charbonneau)",
      "license": "CC-BY-4.0 (http://creativecommons.org/licenses/by/4.0/)",
      "source": "https://sketchfab.com/3d-models/stylized-glowing-rock-cff032b33b544542a6af67cd7b591edf",
      "title": "Stylized glowing rock"
    },
    "generator": "Sketchfab-14.8.0",
    "version": "2.0"
  },
  "bufferViews": [
    {
      "buffer": 0,
      "byteLength": 193536,
      "name": "floatBufferViews",
      "target": 34963
    },
    {
      "buffer": 0,
      "byteLength": 670640,
      "byteOffset": 193536,
      "byteStride": 8,
      "name": "floatBufferViews",
      "target": 34962
    },
    {
      "buffer": 0,
      "byteLength": 201192,
      "byteOffset": 864176,
      "byteStride": 12,
      "name": "floatBufferViews",
      "target": 34962
    },
    {
      "buffer": 0,
      "byteLength": 134128,
      "byteOffset": 1065368,
      "byteStride": 16,
      "name": "floatBufferViews",
      "target": 34962
    }
  ],
  "buffers": [
    {
      "byteLength": 1199496,
      "uri": "scene.bin"
    }
  ],
  "extensionsUsed": [
    "KHR_texture_transform"
  ],
  "images": [
    {
      "uri": "textures/Mesh_1__0_baseColor.png"
    },
    {
      "uri": "textures/Mesh_1__0_metallicRoughness.png"
    },
    {
      "uri": "textures/Mesh_1__0_emissive.png"
    },
    {
      "uri": "textures/Mesh_1__0_normal.png"
    }
  ],
  "materials": [
    {
      "doubleSided": true,
      "emissiveFactor": [
        1.0,
        1.0,
        1.0
      ],
      "emissiveTexture": {
        "index": 2
      },
      "name": "Mesh_1__0",
      "normalTexture": {
        "extensions": {
          "KHR_texture_transform": {
            "scale": [
              2.4900000000000007,
              2.4900000000000007
            ]
          }
        },
        "index": 3
      },
      "occlusionTexture": {
        "extensions": {
          "KHR_texture_transform": {
            "scale": [
              2.4900000000000007,
              2.4900000000000007
            ]
          }
        },
        "index": 1
      },
      "pbrMetallicRoughness": {
        "baseColorTexture": {
          "extensions": {
            "KHR_texture_transform": {
              "scale": [
                2.4928226658964667,
                2.4928226658964667
              ]
            }
          },
          "index": 0
        },
        "metallicRoughnessTexture": {
          "index": 1
        },
        "roughnessFactor": 0.9588570174690056
      }
    }
  ],
  "meshes": [
    {
      "name": "Mesh_1__0",
      "primitives": [
        {
          "attributes": {
            "NORMAL": 1,
            "POSITION": 0,
            "TANGENT": 2,
            "TEXCOORD_0": 3,
            "TEXCOORD_1": 4,
            "TEXCOORD_2": 5,
            "TEXCOORD_3": 6,
            "TEXCOORD_4": 7,
            "TEXCOORD_5": 8,
            "TEXCOORD_6": 9,
            "TEXCOORD_7": 10,
            "TEXCOORD_8": 11,
            "TEXCOORD_9": 12
          },
          "indices": 13,
          "material": 0,
          "mode": 4
        }
      ]
    }
  ],
  "nodes": [
    {
      "children": [
        1
      ],
      "matrix": [
        1.0,
        0.0,
        0.0,
        0.0,
        0.0,
        2.220446049250313e-16,
        -1.0,
        0.0,
        0.0,
        1.0,
        2.220446049250313e-16,
        0.0,
        0.0,
        0.0,
        0.0,
        1.0
      ],
      "name": "Sketchfab_model"
    },
    {
      "children": [
        2
      ],
      "matrix": [
        0.009999999776482582,
        0.0,
        0.0,
        0.0,
        0.0,
        0.0,
        0.009999999776482582,
        0.0,
        0.0,
        -0.009999999776482582,
        0.0,
        0.0,
        0.0,
        0.0,
        0.0,
        1.0
      ],
      "name": "af73132341d54c43bc4c1e183c2b0090.fbx"
    },
    {
      "children": [
        3
      ],
      "name": "RootNode"
    },
    {
      "children": [
        4
      ],
      "matrix": [
        1.0,
        0.0,
        0.0,
        0.0,
        0.0,
        2.220446049250313e-16,
        -1.0,
        0.0,
        0.0,
        1.0,
        2.220446049250313e-16,
        0.0,
        -4.2729639062599745e-06,
        50.0,
        3.06161710499314e-15,
        1.0
      ],
      "name": "Mesh_1"
    },
    {
      "mesh": 0,
      "name": "Mesh_1__0"
    }
  ],
  "samplers": [
    {
      "magFilter": 9729,
      "minFilter": 9987,
      "wrapS": 10497,
      "wrapT": 10497
    }
  ],
  "scene": 0,
  "scenes": [
    {
      "name": "Sketchfab_Scene",
      "nodes": [
        0
      ]
    }
  ],
  "textures": [
    {
      "sampler": 0,
      "source": 0
    },
    {
      "sampler": 0,
      "source": 1
    },
    {
      "sampler": 0,
      "source": 2
    },
    {
      "sampler": 0,
      "source": 3
    }
  ]
}
