{
  "accessors": [
    {
      "bufferView": 2,
      "componentType": 5126,
      "count": 243,
      "max": [
        128.92425537109375,
        75.20015716552734,
        100.19628143310547
      ],
      "min": [
        -104.0548095703125,
        -91.4332046508789,
        -96.1756362915039
      ],
      "type": "VEC3"
    },
    {
      "bufferView": 2,
      "byteOffset": 2916,
      "componentType": 5126,
      "count": 243,
      "max": [
        0.997573971748352,
        0.9997785091400146,
        0.9973820447921753
      ],
      "min": [
        -0.9987441897392273,
        -0.9960493445396423,
        -0.9981077313423157
      ],
      "type": "VEC3"
    },
    {
      "bufferView": 3,
      "componentType": 5126,
      "count": 243,
      "max": [
        0.9677155017852783,
        0.9973887801170349,
        0.9998170733451843,
        1.0
      ],
      "min": [
        -0.3750426471233368,
        -0.9759600758552551,
        -0.8333014249801636,
        1.0
      ],
      "type": "VEC4"
    },
    {
      "bufferView": 1,
      "componentType": 5126,
      "count": 243,
      "max": [
        0.9998959302902222,
        0.5585272312164307
      ],
      "min": [
        0.00010408433445263654,
        0.00010408433445263654
      ],
      "type": "VEC2"
    },
    {
      "bufferView": 0,
      "componentType": 5125,
      "count": 1302,
      "type": "SCALAR"
    }
  ],
  "asset": {
    "extras": {
      "author": "pasquill (https://sketchfab.com/pasquill)",
      "license": "CC-BY-4.0 (http://creativecommons.org/licenses/by/4.0/)",
      "source": "https://sketchfab.com/3d-models/asteroid-low-poly-9a43ef48a70647188576ccb5987b7e64",
      "title": "Asteroid low poly"
    },
    "generator": "Sketchfab-14.23.0",
    "version": "2.0"
  },
  "bufferViews": [
    {
      "buffer": 0,
      "byteLength": 5208,
      "name": "floatBufferViews",
      "target": 34963
    },
    {
      "buffer": 0,
      "byteLength": 1944,
      "byteOffset": 5208,
      "byteStride": 8,
      "name": "floatBufferViews",
      "target": 34962
    },
    {
      "buffer": 0,
      "byteLength": 5832,
      "byteOffset": 7152,
      "byteStride": 12,
      "name": "floatBufferViews",
      "target": 34962
    },
    {
      "buffer": 0,
      "byteLength": 3888,
      "byteOffset": 12984,
      "byteStride": 16,
      "name": "floatBufferViews",
      "target": 34962
    }
  ],
  "buffers": [
    {
      "byteLength": 16872,
      "uri": "scene.bin"
    }
  ],
  "images": [
    {
      "uri": "textures/material_baseColor.png"
    },
    {
      "uri": "textures/material_metallicRoughness.png"
    },
    {
      "uri": "textures/material_emissive.png"
    },
    {
      "uri": "textures/material_normal.png"
    }
  ],
  "materials": [
    {
      "doubleSided": true,
      "emissiveTexture": {
        "index": 2
      },
      "name": "material",
      "normalTexture": {
        "index": 3
      },
      "occlusionTexture": {
        "index": 1
      },
      "pbrMetallicRoughness": {
        "baseColorTexture": {
          "index": 0
        },
        "metallicRoughnessTexture": {
          "index": 1
        }
      }
    }
  ],
  "meshes": [
    {
      "name": "Daphne_LP.001_1_0",
      "primitives": [
        {
          "attributes": {
            "NORMAL": 1,
            "POSITION": 0,
            "TANGENT": 2,
            "TEXCOORD_0": 3
          },
          "indices": 4,
          "material": 0,
          "mode": 4
        }
      ]
    }
  ],
  "nodes": [
    {
      "children": [
        1
      ],
      "matrix": [
        1.0,
        0.0,
        0.0,
        0.0,
        0.0,
        2.220446049250313e-16,
        -1.0,
        0.0,
        0.0,
        1.0,
        2.220446049250313e-16,
        0.0,
        0.0,
        0.0,
        0.0,
        1.0
      ],
      "name": "Sketchfab_model"
    },
    {
      "children": [
        2
      ],
      "matrix": [
        0.009999999776482582,
        0.0,
        0.0,
        0.0,
        0.0,
        0.0,
        0.009999999776482582,
        0.0,
        0.0,
        -0.009999999776482582,
        0.0,
        0.0,
        0.0,
        0.0,
        0.0,
        1.0
      ],
      "name": "1fdee7b3d35f4b5b8da8058616d4d7a2.fbx"
    },
    {
      "children": [
        3
      ],
      "name": "RootNode"
    },
    {
      "children": [
        4
      ],
      "matrix": [
        12.54218864440918,
        0.0,
        0.0,
        0.0,
        0.0,
        -2.0433818950076566e-06,
        -12.542188644409014,
        0.0,
        0.0,
        12.542188644409014,
        -2.0433818950076566e-06,
        0.0,
        0.0,
        0.0,
        0.0,
        1.0
      ],
      "name": "Daphne_LP.001"
    },
    {
      "mesh": 0,
      "name": "Daphne_LP.001_1_0"
    }
  ],
  "samplers": [
    {
      "magFilter": 9729,
      "minFilter": 9987,
      "wrapS": 10497,
      "wrapT": 10497
    }
  ],
  "scene": 0,
  "scenes": [
    {
      "name": "Sketchfab_Scene",
      "nodes": [
        0
      ]
    }
  ],
  "textures": [
    {
      "sampler": 0,
      "source": 0
    },
    {
      "sampler": 0,
      "source": 1
    },
    {
      "sampler": 0,
      "source": 2
    },
    {
      "sampler": 0,
      "source": 3
    }
  ]
}
