{
  "accessors": [
    {
      "bufferView": 2,
      "componentType": 5126,
      "count": 5660,
      "max": [
        0.7235738039016724,
        0.47582584619522095,
        0.981994092464447
      ],
      "min": [
        -0.5966033935546875,
        -0.22691944241523743,
        -0.0012976527214050293
      ],
      "type": "VEC3"
    },
    {
      "bufferView": 2,
      "byteOffset": 67920,
      "componentType": 5126,
      "count": 5660,
      "max": [
        1.0,
        1.0,
        1.0
      ],
      "min": [
        -1.0,
        -1.0,
        -1.0
      ],
      "type": "VEC3"
    },
    {
      "bufferView": 3,
      "componentType": 5126,
      "count": 5660,
      "max": [
        1.0,
        1.0,
        1.0,
        1.0
      ],
      "min": [
        -1.0,
        -1.0,
        -1.0,
        -1.0
      ],
      "type": "VEC4"
    },
    {
      "bufferView": 1,
      "componentType": 5126,
      "count": 5660,
      "max": [
        0.9975494146347046,
        0.998046875
      ],
      "min": [
        0.001953125,
        0.001953125
      ],
      "type": "VEC2"
    },
    {
      "bufferView": 0,
      "componentType": 5125,
      "count": 17673,
      "type": "SCALAR"
    }
  ],
  "asset": {
    "extras": {
      "author": "RAW (https://sketchfab.com/ocbsketch)",
      "license": "CC-BY-4.0 (http://creativecommons.org/licenses/by/4.0/)",
      "source": "https://sketchfab.com/3d-models/welding-machine-mercle-optimig-450-a7764c9a884443109e9d335b6d281b77",
      "title": "Welding Machine (Mercle OptiMIG 450)"
    },
    "generator": "Sketchfab-13.48.0",
    "version": "2.0"
  },
  "bufferViews": [
    {
      "buffer": 0,
      "byteLength": 70692,
      "name": "floatBufferViews",
      "target": 34963
    },
    {
      "buffer": 0,
      "byteLength": 45280,
      "byteOffset": 70692,
      "byteStride": 8,
      "name": "floatBufferViews",
      "target": 34962
    },
    {
      "buffer": 0,
      "byteLength": 135840,
      "byteOffset": 115972,
      "byteStride": 12,
      "name": "floatBufferViews",
      "target": 34962
    },
    {
      "buffer": 0,
      "byteLength": 90560,
      "byteOffset": 251812,
      "byteStride": 16,
      "name": "floatBufferViews",
      "target": 34962
    }
  ],
  "buffers": [
    {
      "byteLength": 342372,
      "uri": "scene.bin"
    }
  ],
  "images": [
    {
      "uri": "textures/OPTIMIG450_baseColor.png"
    },
    {
      "uri": "textures/OPTIMIG450_metallicRoughness.png"
    },
    {
      "uri": "textures/OPTIMIG450_normal.png"
    }
  ],
  "materials": [
    {
      "doubleSided": true,
      "name": "OPTIMIG450",
      "normalTexture": {
        "index": 2
      },
      "occlusionTexture": {
        "index": 1
      },
      "pbrMetallicRoughness": {
        "baseColorTexture": {
          "index": 0
        },
        "metallicRoughnessTexture": {
          "index": 1
        }
      }
    }
  ],
  "meshes": [
    {
      "name": "OptiMIG450_OPTIMIG450_0",
      "primitives": [
        {
          "attributes": {
            "NORMAL": 1,
            "POSITION": 0,
            "TANGENT": 2,
            "TEXCOORD_0": 3
          },
          "indices": 4,
          "material": 0,
          "mode": 4
        }
      ]
    }
  ],
  "nodes": [
    {
      "children": [
        1
      ],
      "matrix": [
        0.01330590806901455,
        0.0,
        0.0,
        0.0,
        0.0,
        2.9545051003531218e-18,
        -0.01330590806901455,
        0.0,
        0.0,
        0.01330590806901455,
        2.9545051003531218e-18,
        0.0,
        0.0,
        0.0,
        0.0,
        1.0
      ],
      "name": "Sketchfab_model"
    },
    {
      "children": [
        2
      ],
      "matrix": [
        1.0,
        0.0,
        0.0,
        0.0,
        0.0,
        0.0,
        1.0,
        0.0,
        0.0,
        -1.0,
        0.0,
        0.0,
        0.0,
        0.0,
        0.0,
        1.0
      ],
      "name": "OptiMIG450.fbx"
    },
    {
      "children": [
        3
      ],
      "name": "RootNode"
    },
    {
      "children": [
        4
      ],
      "matrix": [
        100.0,
        0.0,
        0.0,
        0.0,
        0.0,
        -1.629206793918314e-05,
        -99.99999999999868,
        0.0,
        0.0,
        99.99999999999868,
        -1.629206793918314e-05,
        0.0,
        0.0,
        0.0,
        0.0,
        1.0
      ],
      "name": "OptiMIG450"
    },
    {
      "mesh": 0,
      "name": "OptiMIG450_OPTIMIG450_0"
    }
  ],
  "samplers": [
    {
      "magFilter": 9729,
      "minFilter": 9987,
      "wrapS": 10497,
      "wrapT": 10497
    }
  ],
  "scene": 0,
  "scenes": [
    {
      "name": "Sketchfab_Scene",
      "nodes": [
        0
      ]
    }
  ],
  "textures": [
    {
      "sampler": 0,
      "source": 0
    },
    {
      "sampler": 0,
      "source": 1
    },
    {
      "sampler": 0,
      "source": 2
    }
  ]
}
