{
  "accessors": [
    {
      "bufferView": 2,
      "componentType": 5126,
      "count": 482,
      "max": [
        0.20661699771881104,
        0.20851899683475494,
        0.48043200373649597
      ],
      "min": [
        -0.20661699771881104,
        -0.21652600169181824,
        0.0671980008482933
      ],
      "type": "VEC3"
    },
    {
      "bufferView": 2,
      "byteOffset": 5784,
      "componentType": 5126,
      "count": 482,
      "max": [
        1.0,
        1.0,
        1.0
      ],
      "min": [
        -1.0,
        -1.0,
        -1.0
      ],
      "type": "VEC3"
    },
    {
      "bufferView": 3,
      "componentType": 5126,
      "count": 482,
      "max": [
        1.0,
        1.0,
        0.999969482421875,
        1.0
      ],
      "min": [
        -0.9238495230674744,
        -1.0,
        -1.0,
        -1.0
      ],
      "type": "VEC4"
    },
    {
      "bufferView": 1,
      "componentType": 5126,
      "count": 482,
      "max": [
        0.9937899708747864,
        0.9963060021400452
      ],
      "min": [
        0.008954999968409538,
        0.0017129778861999512
      ],
      "type": "VEC2"
    },
    {
      "bufferView": 0,
      "componentType": 5125,
      "count": 1260,
      "type": "SCALAR"
    }
  ],
  "asset": {
    "extras": {
      "author": "Fruit_Route (https://sketchfab.com/scinnyfinny)",
      "license": "CC-BY-4.0 (http://creativecommons.org/licenses/by/4.0/)",
      "source": "https://sketchfab.com/3d-models/electric-box-daa584b767ea415fb93c0cf94733c7f4",
      "title": "Electric box"
    },
    "generator": "Sketchfab-12.68.0",
    "version": "2.0"
  },
  "bufferViews": [
    {
      "buffer": 0,
      "byteLength": 5040,
      "name": "floatBufferViews",
      "target": 34963
    },
    {
      "buffer": 0,
      "byteLength": 3856,
      "byteOffset": 5040,
      "byteStride": 8,
      "name": "floatBufferViews",
      "target": 34962
    },
    {
      "buffer": 0,
      "byteLength": 11568,
      "byteOffset": 8896,
      "byteStride": 12,
      "name": "floatBufferViews",
      "target": 34962
    },
    {
      "buffer": 0,
      "byteLength": 7712,
      "byteOffset": 20464,
      "byteStride": 16,
      "name": "floatBufferViews",
      "target": 34962
    }
  ],
  "buffers": [
    {
      "byteLength": 28176,
      "uri": "scene.bin"
    }
  ],
  "images": [
    {
      "uri": "textures/desktop_normal_S_baseColor.png"
    },
    {
      "uri": "textures/desktop_normal_S_metallicRoughness.png"
    },
    {
      "uri": "textures/desktop_normal_S_normal.png"
    }
  ],
  "materials": [
    {
      "doubleSided": true,
      "name": "desktop_normal_S",
      "normalTexture": {
        "index": 2,
        "scale": 0.5533574422
      },
      "pbrMetallicRoughness": {
        "baseColorTexture": {
          "index": 0
        },
        "metallicRoughnessTexture": {
          "index": 1
        }
      }
    }
  ],
  "meshes": [
    {
      "name": "mesh0000Shape_desktop_normal_S_0",
      "primitives": [
        {
          "attributes": {
            "NORMAL": 1,
            "POSITION": 0,
            "TANGENT": 2,
            "TEXCOORD_0": 3
          },
          "indices": 4,
          "material": 0,
          "mode": 4
        }
      ]
    }
  ],
  "nodes": [
    {
      "children": [
        1
      ],
      "matrix": [
        0.010881241410970688,
        0.0,
        0.0,
        0.0,
        0.0,
        2.4161209501928766e-18,
        -0.010881241410970688,
        0.0,
        0.0,
        0.010881241410970688,
        2.4161209501928766e-18,
        0.0,
        0.0,
        0.0,
        0.0,
        1.0
      ],
      "name": "Sketchfab_model"
    },
    {
      "children": [
        2
      ],
      "matrix": [
        1.0,
        0.0,
        0.0,
        0.0,
        0.0,
        0.0,
        1.0,
        0.0,
        0.0,
        -1.0,
        0.0,
        0.0,
        0.0,
        0.0,
        0.0,
        1.0
      ],
      "name": "1fad78d841ea4b82a81bb9ff320156df.fbx"
    },
    {
      "children": [
        3
      ],
      "name": "RootNode"
    },
    {
      "children": [
        4
      ],
      "matrix": [
        246.7296142578125,
        0.0,
        0.0,
        0.0,
        0.0,
        -4.019735638096731e-05,
        -246.72961425780923,
        0.0,
        0.0,
        246.72961425780923,
        -4.019735638096731e-05,
        0.0,
        0.0,
        0.0,
        0.0,
        1.0
      ],
      "name": "mesh0000Shape"
    },
    {
      "mesh": 0,
      "name": "mesh0000Shape_desktop_normal_S_0"
    }
  ],
  "samplers": [
    {
      "magFilter": 9729,
      "minFilter": 9987,
      "wrapS": 10497,
      "wrapT": 10497
    }
  ],
  "scene": 0,
  "scenes": [
    {
      "name": "Sketchfab_Scene",
      "nodes": [
        0
      ]
    }
  ],
  "textures": [
    {
      "sampler": 0,
      "source": 0
    },
    {
      "sampler": 0,
      "source": 1
    },
    {
      "sampler": 0,
      "source": 2
    }
  ]
}
