{
  "accessors": [
    {
      "bufferView": 2,
      "componentType": 5126,
      "count": 9366,
      "max": [
        0.47580793499946594,
        0.9178466796875,
        0.6814484596252441
      ],
      "min": [
        -0.4758079946041107,
        -0.014438629150390625,
        -0.6680985689163208
      ],
      "type": "VEC3"
    },
    {
      "bufferView": 2,
      "byteOffset": 112392,
      "componentType": 5126,
      "count": 9366,
      "max": [
        1.0,
        1.0,
        1.0
      ],
      "min": [
        -1.0,
        -1.0,
        -1.0
      ],
      "type": "VEC3"
    },
    {
      "bufferView": 3,
      "componentType": 5126,
      "count": 9366,
      "max": [
        1.0,
        1.0,
        1.0,
        1.0
      ],
      "min": [
        -1.0,
        -1.0,
        -1.0,
        -1.0
      ],
      "type": "VEC4"
    },
    {
      "bufferView": 1,
      "componentType": 5126,
      "count": 9366,
      "max": [
        0.9946650862693787,
        0.98932945728302
      ],
      "min": [
        0.01519794762134552,
        0.007792294025421143
      ],
      "type": "VEC2"
    },
    {
      "bufferView": 1,
      "byteOffset": 74928,
      "componentType": 5126,
      "count": 9366,
      "max": [
        0.9946650862693787,
        0.98932945728302
      ],
      "min": [
        0.01519794762134552,
        0.007792294025421143
      ],
      "type": "VEC2"
    },
    {
      "bufferView": 1,
      "byteOffset": 149856,
      "componentType": 5126,
      "count": 9366,
      "max": [
        0.9946650862693787,
        0.98932945728302
      ],
      "min": [
        0.01519794762134552,
        0.007792294025421143
      ],
      "type": "VEC2"
    },
    {
      "bufferView": 1,
      "byteOffset": 224784,
      "componentType": 5126,
      "count": 9366,
      "max": [
        0.9946650862693787,
        0.98932945728302
      ],
      "min": [
        0.01519794762134552,
        0.007792294025421143
      ],
      "type": "VEC2"
    },
    {
      "bufferView": 1,
      "byteOffset": 299712,
      "componentType": 5126,
      "count": 9366,
      "max": [
        0.9946650862693787,
        0.98932945728302
      ],
      "min": [
        0.01519794762134552,
        0.007792294025421143
      ],
      "type": "VEC2"
    },
    {
      "bufferView": 0,
      "componentType": 5125,
      "count": 27684,
      "type": "SCALAR"
    }
  ],
  "asset": {
    "extras": {
      "author": "gz migo (https://sketchfab.com/migopro)",
      "license": "CC-BY-4.0 (http://creativecommons.org/licenses/by/4.0/)",
      "source": "https://sketchfab.com/3d-models/sci-fi-industrial-electric-generator-f21b7cdb85b64034a513a68825ee5c8c",
      "title": "sci-fi Industrial electric generator"
    },
    "generator": "Sketchfab-15.42.0",
    "version": "2.0"
  },
  "bufferViews": [
    {
      "buffer": 0,
      "byteLength": 110736,
      "name": "floatBufferViews",
      "target": 34963
    },
    {
      "buffer": 0,
      "byteLength": 374640,
      "byteOffset": 110736,
      "byteStride": 8,
      "name": "floatBufferViews",
      "target": 34962
    },
    {
      "buffer": 0,
      "byteLength": 224784,
      "byteOffset": 485376,
      "byteStride": 12,
      "name": "floatBufferViews",
      "target": 34962
    },
    {
      "buffer": 0,
      "byteLength": 149856,
      "byteOffset": 710160,
      "byteStride": 16,
      "name": "floatBufferViews",
      "target": 34962
    }
  ],
  "buffers": [
    {
      "byteLength": 860016,
      "uri": "scene.bin"
    }
  ],
  "images": [
    {
      "uri": "textures/DefaultMaterial_baseColor.png"
    },
    {
      "uri": "textures/DefaultMaterial_metallicRoughness.png"
    },
    {
      "uri": "textures/DefaultMaterial_normal.png"
    }
  ],
  "materials": [
    {
      "name": "DefaultMaterial",
      "normalTexture": {
        "index": 2
      },
      "occlusionTexture": {
        "index": 1
      },
      "pbrMetallicRoughness": {
        "baseColorTexture": {
          "index": 0
        },
        "metallicRoughnessTexture": {
          "index": 1
        }
      }
    }
  ],
  "meshes": [
    {
      "name": "Object_0",
      "primitives": [
        {
          "attributes": {
            "NORMAL": 1,
            "POSITION": 0,
            "TANGENT": 2,
            "TEXCOORD_0": 3,
            "TEXCOORD_1": 4,
            "TEXCOORD_2": 5,
            "TEXCOORD_3": 6,
            "TEXCOORD_4": 7
          },
          "indices": 8,
          "material": 0,
          "mode": 4
        }
      ]
    }
  ],
  "nodes": [
    {
      "children": [
        1
      ],
      "matrix": [
        1.0,
        0.0,
        0.0,
        0.0,
        0.0,
        2.220446049250313e-16,
        -1.0,
        0.0,
        0.0,
        1.0,
        2.220446049250313e-16,
        0.0,
        0.0,
        0.0,
        0.0,
        1.0
      ],
      "name": "Sketchfab_model"
    },
    {
      "children": [
        2
      ],
      "name": "root"
    },
    {
      "children": [
        3
      ],
      "matrix": [
        1.0,
        0.0,
        0.0,
        0.0,
        0.0,
        2.220446049250313e-16,
        1.0,
        0.0,
        0.0,
        -1.0,
        2.220446049250313e-16,
        0.0,
        0.0,
        0.0,
        0.0,
        1.0
      ],
      "name": "GLTF_SceneRootNode"
    },
    {
      "children": [
        4
      ],
      "matrix": [
        1.354733153920625e-06,
        0.0,
        -4.017895698547135,
        0.0,
        0.0,
        4.017895698547363,
        0.0,
        0.0,
        4.017895698547135,
        0.0,
        1.354733153920625e-06,
        0.0,
        0.0,
        0.05266555771231651,
        0.0,
        1.0
      ],
      "name": "Plane_Curve.001_0"
    },
    {
      "mesh": 0,
      "name": "Object_4"
    }
  ],
  "samplers": [
    {
      "magFilter": 9729,
      "minFilter": 9987,
      "wrapS": 10497,
      "wrapT": 10497
    }
  ],
  "scene": 0,
  "scenes": [
    {
      "name": "Sketchfab_Scene",
      "nodes": [
        0
      ]
    }
  ],
  "textures": [
    {
      "sampler": 0,
      "source": 0
    },
    {
      "sampler": 0,
      "source": 1
    },
    {
      "sampler": 0,
      "source": 2
    }
  ]
}
