{
  "accessors": [
    {
      "bufferView": 2,
      "componentType": 5126,
      "count": 5295,
      "max": [
        2.0828208923339844,
        3.119379997253418,
        11.151885032653809
      ],
      "min": [
        -4.724370002746582,
        -5.179214000701904,
        5.028748035430908
      ],
      "type": "VEC3"
    },
    {
      "bufferView": 2,
      "byteOffset": 63540,
      "componentType": 5126,
      "count": 5295,
      "max": [
        1.0,
        1.0,
        1.0
      ],
      "min": [
        -1.0,
        -1.0,
        -1.0
      ],
      "type": "VEC3"
    },
    {
      "bufferView": 3,
      "componentType": 5126,
      "count": 5295,
      "max": [
        1.0,
        1.0,
        1.0,
        1.0
      ],
      "min": [
        -1.0,
        -1.0,
        -1.0,
        -1.0
      ],
      "type": "VEC4"
    },
    {
      "bufferView": 1,
      "componentType": 5126,
      "count": 5295,
      "max": [
        0.9977319836616516,
        0.9816049933433533
      ],
      "min": [
        0.0018019999843090773,
        0.001800999976694584
      ],
      "type": "VEC2"
    },
    {
      "bufferView": 0,
      "componentType": 5125,
      "count": 18936,
      "type": "SCALAR"
    },
    {
      "bufferView": 2,
      "byteOffset": 127080,
      "componentType": 5126,
      "count": 7870,
      "max": [
        1.9820760488510132,
        3.714056968688965,
        11.719482421875
      ],
      "min": [
        -5.104116916656494,
        -5.626101970672607,
        4.697947978973389
      ],
      "type": "VEC3"
    },
    {
      "bufferView": 2,
      "byteOffset": 221520,
      "componentType": 5126,
      "count": 7870,
      "max": [
        1.0,
        1.0,
        0.9999164342880249
      ],
      "min": [
        -1.0,
        -0.9997262358665466,
        -0.9999188184738159
      ],
      "type": "VEC3"
    },
    {
      "bufferView": 3,
      "byteOffset": 84720,
      "componentType": 5126,
      "count": 7870,
      "max": [
        1.0,
        0.999922513961792,
        0.9999996423721313,
        1.0
      ],
      "min": [
        -1.0,
        -0.9999285936355591,
        -0.9999905824661255,
        -1.0
      ],
      "type": "VEC4"
    },
    {
      "bufferView": 1,
      "byteOffset": 42360,
      "componentType": 5126,
      "count": 7870,
      "max": [
        0.9982119798660278,
        0.9981979727745056
      ],
      "min": [
        0.0017999999690800905,
        0.0017989999614655972
      ],
      "type": "VEC2"
    },
    {
      "bufferView": 0,
      "byteOffset": 75744,
      "componentType": 5125,
      "count": 30660,
      "type": "SCALAR"
    }
  ],
  "asset": {
    "extras": {
      "author": "Nokken (https://sketchfab.com/nokken)",
      "license": "CC-BY-4.0 (http://creativecommons.org/licenses/by/4.0/)",
      "source": "https://sketchfab.com/3d-models/sci-fi-turbocharger-071da6d19c7541d7b3a87c3bc12085ca",
      "title": "Sci-fi turbocharger"
    },
    "generator": "Sketchfab-14.77.0",
    "version": "2.0"
  },
  "bufferViews": [
    {
      "buffer": 0,
      "byteLength": 198384,
      "name": "floatBufferViews",
      "target": 34963
    },
    {
      "buffer": 0,
      "byteLength": 105320,
      "byteOffset": 198384,
      "byteStride": 8,
      "name": "floatBufferViews",
      "target": 34962
    },
    {
      "buffer": 0,
      "byteLength": 315960,
      "byteOffset": 303704,
      "byteStride": 12,
      "name": "floatBufferViews",
      "target": 34962
    },
    {
      "buffer": 0,
      "byteLength": 210640,
      "byteOffset": 619664,
      "byteStride": 16,
      "name": "floatBufferViews",
      "target": 34962
    }
  ],
  "buffers": [
    {
      "byteLength": 830304,
      "uri": "scene.bin"
    }
  ],
  "images": [
    {
      "uri": "textures/ZenUV_Generic_Material.002_baseColor.png"
    },
    {
      "uri": "textures/ZenUV_Generic_Material.002_metallicRoughness.png"
    },
    {
      "uri": "textures/ZenUV_Generic_Material.002_normal.png"
    }
  ],
  "materials": [
    {
      "doubleSided": true,
      "name": "ZenUV_Generic_Material.002",
      "normalTexture": {
        "index": 2
      },
      "occlusionTexture": {
        "index": 1
      },
      "pbrMetallicRoughness": {
        "baseColorTexture": {
          "index": 0
        },
        "metallicRoughnessTexture": {
          "index": 1
        }
      }
    }
  ],
  "meshes": [
    {
      "name": "Object_0",
      "primitives": [
        {
          "attributes": {
            "NORMAL": 1,
            "POSITION": 0,
            "TANGENT": 2,
            "TEXCOORD_0": 3
          },
          "indices": 4,
          "material": 0,
          "mode": 4
        }
      ]
    },
    {
      "name": "Object_1",
      "primitives": [
        {
          "attributes": {
            "NORMAL": 6,
            "POSITION": 5,
            "TANGENT": 7,
            "TEXCOORD_0": 8
          },
          "indices": 9,
          "material": 0,
          "mode": 4
        }
      ]
    }
  ],
  "nodes": [
    {
      "children": [
        1
      ],
      "matrix": [
        1.0,
        0.0,
        0.0,
        0.0,
        0.0,
        2.220446049250313e-16,
        -1.0,
        0.0,
        0.0,
        1.0,
        2.220446049250313e-16,
        0.0,
        0.0,
        0.0,
        0.0,
        1.0
      ],
      "name": "Sketchfab_model"
    },
    {
      "children": [
        2,
        3
      ],
      "name": "turblow.obj.cleaner.materialmerger.gles"
    },
    {
      "mesh": 0,
      "name": "Object_2"
    },
    {
      "mesh": 1,
      "name": "Object_3"
    }
  ],
  "samplers": [
    {
      "magFilter": 9729,
      "minFilter": 9987,
      "wrapS": 10497,
      "wrapT": 10497
    }
  ],
  "scene": 0,
  "scenes": [
    {
      "name": "Sketchfab_Scene",
      "nodes": [
        0
      ]
    }
  ],
  "textures": [
    {
      "sampler": 0,
      "source": 0
    },
    {
      "sampler": 0,
      "source": 1
    },
    {
      "sampler": 0,
      "source": 2
    }
  ]
}
