{
  "accessors": [
    {
      "bufferView": 2,
      "componentType": 5126,
      "count": 27335,
      "max": [
        1293.0103759765625,
        552.4703369140625,
        1146.4754638671875
      ],
      "min": [
        -1298.9906005859375,
        -98.86263275146484,
        -1042.2681884765625
      ],
      "type": "VEC3"
    },
    {
      "bufferView": 2,
      "byteOffset": 328020,
      "componentType": 5126,
      "count": 27335,
      "max": [
        0.9999983310699463,
        0.9999978542327881,
        0.9999929666519165
      ],
      "min": [
        -0.9999999403953552,
        -0.9999884963035583,
        -0.9999908208847046
      ],
      "type": "VEC3"
    },
    {
      "bufferView": 3,
      "componentType": 5126,
      "count": 27335,
      "max": [
        0.999999463558197,
        0.9999980926513672,
        0.999999463558197,
        1.0
      ],
      "min": [
        -0.9999991655349731,
        -0.9999991059303284,
        -0.9999992251396179,
        -1.0
      ],
      "type": "VEC4"
    },
    {
      "bufferView": 1,
      "componentType": 5126,
      "count": 27335,
      "max": [
        0.9983732104301453,
        0.9975924491882324
      ],
      "min": [
        0.0016249596374109387,
        0.0016248971223831177
      ],
      "type": "VEC2"
    },
    {
      "bufferView": 1,
      "byteOffset": 218680,
      "componentType": 5126,
      "count": 27335,
      "max": [
        0.9983732104301453,
        0.9975924491882324
      ],
      "min": [
        0.0016249596374109387,
        0.0016248971223831177
      ],
      "type": "VEC2"
    },
    {
      "bufferView": 1,
      "byteOffset": 437360,
      "componentType": 5126,
      "count": 27335,
      "max": [
        0.9983732104301453,
        0.9975924491882324
      ],
      "min": [
        0.0016249596374109387,
        0.0016248971223831177
      ],
      "type": "VEC2"
    },
    {
      "bufferView": 1,
      "byteOffset": 656040,
      "componentType": 5126,
      "count": 27335,
      "max": [
        0.9983732104301453,
        0.9975924491882324
      ],
      "min": [
        0.0016249596374109387,
        0.0016248971223831177
      ],
      "type": "VEC2"
    },
    {
      "bufferView": 0,
      "componentType": 5125,
      "count": 67896,
      "type": "SCALAR"
    }
  ],
  "asset": {
    "extras": {
      "author": "JazOone (https://sketchfab.com/JazOone)",
      "license": "CC-BY-4.0 (http://creativecommons.org/licenses/by/4.0/)",
      "source": "https://sketchfab.com/3d-models/spaceship-6164a883f57f4f13938c3c5999bc0e1f",
      "title": "SpaceShip"
    },
    "generator": "Sketchfab-15.13.0",
    "version": "2.0"
  },
  "bufferViews": [
    {
      "buffer": 0,
      "byteLength": 271584,
      "name": "floatBufferViews",
      "target": 34963
    },
    {
      "buffer": 0,
      "byteLength": 874720,
      "byteOffset": 271584,
      "byteStride": 8,
      "name": "floatBufferViews",
      "target": 34962
    },
    {
      "buffer": 0,
      "byteLength": 656040,
      "byteOffset": 1146304,
      "byteStride": 12,
      "name": "floatBufferViews",
      "target": 34962
    },
    {
      "buffer": 0,
      "byteLength": 437360,
      "byteOffset": 1802344,
      "byteStride": 16,
      "name": "floatBufferViews",
      "target": 34962
    }
  ],
  "buffers": [
    {
      "byteLength": 2239704,
      "uri": "scene.bin"
    }
  ],
  "extensionsUsed": [
    "KHR_materials_emissive_strength"
  ],
  "images": [
    {
      "uri": "textures/Material.003_baseColor.jpeg"
    },
    {
      "uri": "textures/Material.003_metallicRoughness.png"
    },
    {
      "uri": "textures/Material.003_emissive.jpeg"
    },
    {
      "uri": "textures/Material.003_normal.png"
    }
  ],
  "materials": [
    {
      "doubleSided": true,
      "emissiveFactor": [
        1.0,
        1.0,
        1.0
      ],
      "emissiveTexture": {
        "index": 2
      },
      "extensions": {
        "KHR_materials_emissive_strength": {
          "emissiveStrength": 3.3371530275139882
        }
      },
      "name": "Material.003",
      "normalTexture": {
        "index": 3
      },
      "occlusionTexture": {
        "index": 1
      },
      "pbrMetallicRoughness": {
        "baseColorTexture": {
          "index": 0
        },
        "metallicRoughnessTexture": {
          "index": 1
        }
      }
    }
  ],
  "meshes": [
    {
      "name": "Starship_Material.003_0",
      "primitives": [
        {
          "attributes": {
            "NORMAL": 1,
            "POSITION": 0,
            "TANGENT": 2,
            "TEXCOORD_0": 3,
            "TEXCOORD_1": 4,
            "TEXCOORD_2": 5,
            "TEXCOORD_3": 6
          },
          "indices": 7,
          "material": 0,
          "mode": 4
        }
      ]
    }
  ],
  "nodes": [
    {
      "children": [
        1
      ],
      "matrix": [
        1.0,
        0.0,
        0.0,
        0.0,
        0.0,
        2.220446049250313e-16,
        -1.0,
        0.0,
        0.0,
        1.0,
        2.220446049250313e-16,
        0.0,
        0.0,
        0.0,
        0.0,
        1.0
      ],
      "name": "Sketchfab_model"
    },
    {
      "children": [
        2
      ],
      "matrix": [
        0.009999999776482582,
        0.0,
        0.0,
        0.0,
        0.0,
        0.0,
        0.009999999776482582,
        0.0,
        0.0,
        -0.009999999776482582,
        0.0,
        0.0,
        0.0,
        0.0,
        0.0,
        1.0
      ],
      "name": "SpaceShip.fbx"
    },
    {
      "children": [
        3
      ],
      "name": "RootNode"
    },
    {
      "children": [
        4
      ],
      "name": "Starship"
    },
    {
      "mesh": 0,
      "name": "Starship_Material.003_0"
    }
  ],
  "samplers": [
    {
      "magFilter": 9729,
      "minFilter": 9987,
      "wrapS": 10497,
      "wrapT": 10497
    }
  ],
  "scene": 0,
  "scenes": [
    {
      "name": "Sketchfab_Scene",
      "nodes": [
        0
      ]
    }
  ],
  "textures": [
    {
      "sampler": 0,
      "source": 0
    },
    {
      "sampler": 0,
      "source": 1
    },
    {
      "sampler": 0,
      "source": 2
    },
    {
      "sampler": 0,
      "source": 3
    }
  ]
}
