{
  "accessors": [
    {
      "bufferView": 2,
      "componentType": 5126,
      "count": 4800,
      "max": [
        0.18239906430244446,
        0.5075509548187256,
        0.1823989897966385
      ],
      "min": [
        -0.18609429895877838,
        -0.4230261743068695,
        -0.1823989897966385
      ],
      "type": "VEC3"
    },
    {
      "bufferView": 2,
      "byteOffset": 57600,
      "componentType": 5126,
      "count": 4800,
      "max": [
        1.0,
        1.0,
        1.0
      ],
      "min": [
        -1.0,
        -1.0,
        -1.0
      ],
      "type": "VEC3"
    },
    {
      "bufferView": 3,
      "componentType": 5126,
      "count": 4800,
      "max": [
        1.0,
        1.0,
        1.0,
        1.0
      ],
      "min": [
        -1.0,
        -1.0,
        -1.0,
        -1.0
      ],
      "type": "VEC4"
    },
    {
      "bufferView": 1,
      "componentType": 5126,
      "count": 4800,
      "max": [
        0.7962208986282349,
        0.9995754361152649
      ],
      "min": [
        0.0,
        0.0
      ],
      "type": "VEC2"
    },
    {
      "bufferView": 0,
      "componentType": 5125,
      "count": 9291,
      "type": "SCALAR"
    },
    {
      "bufferView": 2,
      "byteOffset": 115200,
      "componentType": 5126,
      "count": 1792,
      "max": [
        -0.1768396645784378,
        0.35476770997047424,
        0.05541029945015907
      ],
      "min": [
        -0.18274414539337158,
        0.2565583288669586,
        -0.05541042983531952
      ],
      "type": "VEC3"
    },
    {
      "bufferView": 2,
      "byteOffset": 136704,
      "componentType": 5126,
      "count": 1792,
      "max": [
        1.0,
        0.9951865673065186,
        0.9951850771903992
      ],
      "min": [
        -1.0,
        -0.9951865673065186,
        -0.9951856732368469
      ],
      "type": "VEC3"
    },
    {
      "bufferView": 1,
      "byteOffset": 38400,
      "componentType": 5126,
      "count": 1792,
      "max": [
        0.46398431062698364,
        0.240828275680542
      ],
      "min": [
        0.389779657125473,
        0.2299269586801529
      ],
      "type": "VEC2"
    },
    {
      "bufferView": 0,
      "byteOffset": 37164,
      "componentType": 5125,
      "count": 3024,
      "type": "SCALAR"
    },
    {
      "bufferView": 2,
      "byteOffset": 158208,
      "componentType": 5126,
      "count": 146,
      "max": [
        0.17236801981925964,
        0.34347137808799744,
        0.17236793041229248
      ],
      "min": [
        -0.17236801981925964,
        -0.2818193733692169,
        -0.17236793041229248
      ],
      "type": "VEC3"
    },
    {
      "bufferView": 2,
      "byteOffset": 159960,
      "componentType": 5126,
      "count": 146,
      "max": [
        1.0,
        0.0,
        1.0
      ],
      "min": [
        -1.0,
        0.0,
        -1.0
      ],
      "type": "VEC3"
    },
    {
      "bufferView": 3,
      "byteOffset": 76800,
      "componentType": 5126,
      "count": 146,
      "max": [
        0.9999990463256836,
        1.0,
        1.0,
        1.0
      ],
      "min": [
        -0.9999998807907104,
        -1.0,
        -1.0,
        1.0
      ],
      "type": "VEC4"
    },
    {
      "bufferView": 1,
      "byteOffset": 52736,
      "componentType": 5126,
      "count": 146,
      "max": [
        0.9266430139541626,
        0.9119675159454346
      ],
      "min": [
        4.503158734792123e-09,
        0.07887621968984604
      ],
      "type": "VEC2"
    },
    {
      "bufferView": 0,
      "byteOffset": 49260,
      "componentType": 5125,
      "count": 384,
      "type": "SCALAR"
    },
    {
      "bufferView": 2,
      "byteOffset": 161712,
      "componentType": 5126,
      "count": 24,
      "max": [
        -0.17930150032043457,
        0.3395499885082245,
        0.039036162197589874
      ],
      "min": [
        -0.18413591384887695,
        0.2723226845264435,
        -0.04001617431640625
      ],
      "type": "VEC3"
    },
    {
      "bufferView": 2,
      "byteOffset": 162000,
      "componentType": 5126,
      "count": 24,
      "max": [
        1.0,
        0.7088138461112976,
        0.09799579530954361
      ],
      "min": [
        0.5933006405830383,
        -0.599038302898407,
        -0.6715540289878845
      ],
      "type": "VEC3"
    },
    {
      "bufferView": 3,
      "byteOffset": 79136,
      "componentType": 5126,
      "count": 24,
      "max": [
        0.7405719757080078,
        0.6717244982719421,
        0.07293707877397537,
        1.0
      ],
      "min": [
        -0.7378681898117065,
        -1.0,
        -0.0694856122136116,
        -1.0
      ],
      "type": "VEC4"
    },
    {
      "bufferView": 1,
      "byteOffset": 53904,
      "componentType": 5126,
      "count": 24,
      "max": [
        0.8400000929832458,
        1.0
      ],
      "min": [
        0.0,
        0.012247079983353615
      ],
      "type": "VEC2"
    },
    {
      "bufferView": 0,
      "byteOffset": 50796,
      "componentType": 5125,
      "count": 36,
      "type": "SCALAR"
    },
    {
      "bufferView": 2,
      "byteOffset": 162288,
      "componentType": 5126,
      "count": 139,
      "max": [
        0.09378870576620102,
        0.3427073359489441,
        0.12413542717695236
      ],
      "min": [
        -0.11665371060371399,
        -0.27210521697998047,
        -0.12413542717695236
      ],
      "type": "VEC3"
    },
    {
      "bufferView": 2,
      "byteOffset": 163956,
      "componentType": 5126,
      "count": 139,
      "max": [
        0.9950138926506042,
        0.589593768119812,
        0.9999985694885254
      ],
      "min": [
        -0.957256019115448,
        -0.5782793760299683,
        -0.9999985694885254
      ],
      "type": "VEC3"
    },
    {
      "bufferView": 1,
      "byteOffset": 54096,
      "componentType": 5126,
      "count": 139,
      "max": [
        0.7938650846481323,
        0.9884135127067566
      ],
      "min": [
        0.03920144587755203,
        0.4137703776359558
      ],
      "type": "VEC2"
    },
    {
      "bufferView": 0,
      "byteOffset": 50940,
      "componentType": 5125,
      "count": 225,
      "type": "SCALAR"
    }
  ],
  "asset": {
    "extras": {
      "author": "NinjaJD (https://sketchfab.com/NinjaJD)",
      "license": "CC-BY-4.0 (http://creativecommons.org/licenses/by/4.0/)",
      "source": "https://sketchfab.com/3d-models/nuclear-reactor-bomb-chamber-6b2031b189e64936a8abd16231c061b8",
      "title": "Nuclear Reactor Bomb Chamber"
    },
    "generator": "Sketchfab-12.67.0",
    "version": "2.0"
  },
  "bufferViews": [
    {
      "buffer": 0,
      "byteLength": 51840,
      "name": "floatBufferViews",
      "target": 34963
    },
    {
      "buffer": 0,
      "byteLength": 55208,
      "byteOffset": 51840,
      "byteStride": 8,
      "name": "floatBufferViews",
      "target": 34962
    },
    {
      "buffer": 0,
      "byteLength": 165624,
      "byteOffset": 107048,
      "byteStride": 12,
      "name": "floatBufferViews",
      "target": 34962
    },
    {
      "buffer": 0,
      "byteLength": 79520,
      "byteOffset": 272672,
      "byteStride": 16,
      "name": "floatBufferViews",
      "target": 34962
    }
  ],
  "buffers": [
    {
      "byteLength": 352192,
      "uri": "scene.bin"
    }
  ],
  "extensionsUsed": [
    "KHR_texture_transform"
  ],
  "images": [
    {
      "uri": "textures/Bomb_Metal_baseColor.jpeg"
    },
    {
      "uri": "textures/Bomb_Metal_metallicRoughness.png"
    },
    {
      "uri": "textures/Bomb_Metal_normal.jpeg"
    },
    {
      "uri": "textures/Glass_baseColor.jpeg"
    },
    {
      "uri": "textures/Screen_baseColor.jpeg"
    },
    {
      "uri": "textures/Screen_metallicRoughness.png"
    }
  ],
  "materials": [
    {
      "doubleSided": true,
      "name": "Bomb_Metal",
      "normalTexture": {
        "index": 2
      },
      "pbrMetallicRoughness": {
        "baseColorTexture": {
          "index": 0
        },
        "metallicRoughnessTexture": {
          "index": 1
        },
        "roughnessFactor": 0.5
      }
    },
    {
      "doubleSided": true,
      "name": "Bolts",
      "pbrMetallicRoughness": {
        "baseColorFactor": [
          0.00489514,
          0.00489514,
          0.00489514,
          1.0
        ],
        "metallicFactor": 0.0,
        "roughnessFactor": 0.5
      }
    },
    {
      "alphaMode": "BLEND",
      "doubleSided": true,
      "name": "Glass",
      "normalTexture": {
        "index": 2
      },
      "pbrMetallicRoughness": {
        "baseColorFactor": [
          1.0,
          1.0,
          1.0,
          0.6058473193839655
        ],
        "baseColorTexture": {
          "index": 3
        },
        "metallicFactor": 0.0
      }
    },
    {
      "doubleSided": true,
      "emissiveFactor": [
        1.0,
        0.0,
        0.0
      ],
      "name": "Screen",
      "normalTexture": {
        "index": 2
      },
      "pbrMetallicRoughness": {
        "baseColorTexture": {
          "extensions": {
            "KHR_texture_transform": {
              "offset": [
                -0.035571838947052736,
                -0.10012657560255256
              ],
              "rotation": 1.5707963267948966,
              "scale": [
                1.0211901002090313,
                1
              ]
            }
          },
          "index": 4
        },
        "metallicRoughnessTexture": {
          "index": 5
        },
        "roughnessFactor": 0.8777309290316044
      }
    },
    {
      "doubleSided": true,
      "emissiveFactor": [
        1.0,
        0.9159449283644638,
        0.0
      ],
      "name": "Power_BLEND"
    }
  ],
  "meshes": [
    {
      "name": "Object_0",
      "primitives": [
        {
          "attributes": {
            "NORMAL": 1,
            "POSITION": 0,
            "TANGENT": 2,
            "TEXCOORD_0": 3
          },
          "indices": 4,
          "material": 0,
          "mode": 4
        }
      ]
    },
    {
      "name": "Object_1",
      "primitives": [
        {
          "attributes": {
            "NORMAL": 6,
            "POSITION": 5,
            "TEXCOORD_0": 7
          },
          "indices": 8,
          "material": 1,
          "mode": 4
        }
      ]
    },
    {
      "name": "Object_2",
      "primitives": [
        {
          "attributes": {
            "NORMAL": 10,
            "POSITION": 9,
            "TANGENT": 11,
            "TEXCOORD_0": 12
          },
          "indices": 13,
          "material": 2,
          "mode": 4
        }
      ]
    },
    {
      "name": "Object_3",
      "primitives": [
        {
          "attributes": {
            "NORMAL": 15,
            "POSITION": 14,
            "TANGENT": 16,
            "TEXCOORD_0": 17
          },
          "indices": 18,
          "material": 3,
          "mode": 4
        }
      ]
    },
    {
      "name": "Object_4",
      "primitives": [
        {
          "attributes": {
            "NORMAL": 20,
            "POSITION": 19,
            "TEXCOORD_0": 21
          },
          "indices": 22,
          "material": 4,
          "mode": 4
        }
      ]
    }
  ],
  "nodes": [
    {
      "children": [
        1
      ],
      "matrix": [
        0.8865467309951782,
        0.0,
        0.0,
        0.0,
        0.0,
        3.39420504073659e-16,
        -0.8865467309951782,
        0.0,
        0.0,
        0.8865467309951782,
        3.39420504073659e-16,
        0.0,
        0.0,
        1.3550105583552886e-32,
        -6.102425045691965e-17,
        1.0
      ],
      "name": "Sketchfab_model"
    },
    {
      "children": [
        2
      ],
      "name": "root"
    },
    {
      "children": [
        3
      ],
      "matrix": [
        1.0,
        0.0,
        0.0,
        0.0,
        0.0,
        2.220446049250313e-16,
        1.0,
        0.0,
        0.0,
        -1.0,
        2.220446049250313e-16,
        0.0,
        0.0,
        0.0,
        0.0,
        1.0
      ],
      "name": "GLTF_SceneRootNode"
    },
    {
      "children": [
        4,
        5,
        6,
        7,
        8
      ],
      "matrix": [
        1.0,
        0.0,
        0.0,
        0.0,
        0.0,
        1.0,
        0.0,
        0.0,
        0.0,
        0.0,
        1.0,
        0.0,
        0.0,
        0.4235112965106964,
        0.0,
        1.0
      ],
      "name": "Bomb_0"
    },
    {
      "mesh": 0,
      "name": "Object_4"
    },
    {
      "mesh": 1,
      "name": "Object_5"
    },
    {
      "mesh": 2,
      "name": "Object_6"
    },
    {
      "mesh": 3,
      "name": "Object_7"
    },
    {
      "mesh": 4,
      "name": "Object_8"
    }
  ],
  "samplers": [
    {
      "magFilter": 9729,
      "minFilter": 9987,
      "wrapS": 10497,
      "wrapT": 10497
    }
  ],
  "scene": 0,
  "scenes": [
    {
      "name": "Sketchfab_Scene",
      "nodes": [
        0
      ]
    }
  ],
  "textures": [
    {
      "sampler": 0,
      "source": 0
    },
    {
      "sampler": 0,
      "source": 1
    },
    {
      "sampler": 0,
      "source": 2
    },
    {
      "sampler": 0,
      "source": 3
    },
    {
      "sampler": 0,
      "source": 4
    },
    {
      "sampler": 0,
      "source": 5
    }
  ]
}
